<svg width="760" height="126" viewBox="0 0 760 126" fill="none" xmlns="http://www.w3.org/2000/svg">
    <path d="M243.467 120.681L243.817 117.539L294.988 27.4232H264.077C262.502 27.4232 261.281 25.8522 261.456 24.1062L264.252 5.07127C264.427 3.32529 266.173 1.75432 267.744 1.75432H335.154C336.729 1.75432 338.125 3.32529 337.775 5.07127L337.425 7.3423L288.004 98.3292H318.565C320.311 98.3292 321.182 99.9044 321.007 101.646L318.386 120.681C318.036 122.427 316.64 123.998 314.894 123.998H245.913C244.338 123.998 243.292 122.427 243.467 120.681Z" fill="#4B4C50"/>
    <path d="M366.769 27.4232H345.459C343.713 27.4232 342.663 25.8522 342.838 24.1062L345.634 5.07127C345.813 3.32529 347.384 1.75432 348.955 1.75432H419.507C421.257 1.75432 422.303 3.32529 422.128 5.07127L419.332 24.1062C419.157 25.8522 417.761 27.4232 416.015 27.4232H394.53L381.433 120.681C381.258 122.427 379.512 123.998 377.941 123.998H356.285C354.714 123.998 353.489 122.427 353.664 120.681L366.765 27.4232H366.769Z" fill="#C1C1C1"/>
    <path d="M437.325 5.07127C437.504 3.32529 439.075 1.75432 440.646 1.75432H462.827C464.398 1.75432 465.623 3.32529 465.448 5.07127L455.489 77.1983C453.743 89.4243 459.86 97.8042 469.461 97.8042C479.941 97.8042 488.5 89.4202 490.242 77.1983L500.197 5.07127C500.376 3.32529 501.772 1.75432 503.518 1.75432H525.524C527.095 1.75432 528.32 3.32529 528.141 5.07127L518.011 78.5942C513.994 106.888 494.959 125.748 465.969 125.748C442.567 125.748 423.353 105.142 427.199 78.5942L437.329 5.07127H437.325Z" fill="#C1C1C1"/>
    <path d="M555.743 5.07127C555.918 3.32529 557.489 1.75432 559.06 1.75432H606.214C624.549 1.75432 636.95 16.5973 636.95 34.5863C636.95 52.5753 626.295 68.9892 608.306 74.5772L623.499 118.935C624.374 121.206 622.803 123.998 620.182 123.998H597.655C596.434 123.998 595.384 123.298 595.209 122.427L580.891 76.1482H573.207L566.924 120.681C566.744 122.427 565.173 123.998 563.602 123.998H541.951C540.2 123.998 539.154 122.427 539.505 120.681L555.748 5.07127H555.743ZM595.384 53.9713C603.593 53.9713 609.531 46.2873 609.531 37.9032C609.531 31.7902 606.389 26.7273 600.101 26.7273H580.021L576.178 53.9713H595.389H595.384Z" fill="#BFBFBF"/>
    <path d="M664.549 3.1461C664.724 1.40012 666.47 0 668.041 0H671.882L723.924 67.4141H724.099L732.484 5.0671C732.659 3.32112 734.054 1.75015 735.805 1.75015H757.111C758.682 1.75015 760.078 3.1461 759.907 4.71707L743.489 122.602C743.314 124.348 741.743 125.744 740.172 125.744H735.805L683.759 56.2381H683.583L675.729 120.681C675.379 122.427 673.978 123.998 672.233 123.998H650.752C649.356 123.998 647.955 122.602 648.13 121.031L664.549 3.1461Z" fill="#C1C1C1"/>
    <path d="M65.6639 0.00416565C92.7329 0.00416565 114.389 24.4563 114.389 54.6672C114.389 93.9622 85.399 125.744 48.725 125.744C21.831 125.744 0 101.646 0 71.6061C0 32.1361 29.34 0.00416565 65.6639 0.00416565ZM85.749 57.9883C85.749 41.5702 75.969 27.9482 61.997 27.9482C45.0539 27.9482 28.6399 46.2873 28.6399 67.9433C28.6399 84.1864 38.42 97.8042 52.217 97.8042C69.5059 97.8042 85.749 79.6401 85.749 57.9883Z" fill="#FF8366"/>
    <path d="M192.112 0.00416565C219.181 0.00416565 240.837 24.4563 240.837 54.6672C240.837 93.9622 211.847 125.744 175.173 125.744C148.279 125.744 126.448 101.646 126.448 71.6061C126.448 32.1361 155.788 0.00416565 192.112 0.00416565ZM212.197 57.9883C212.197 41.5702 202.417 27.9482 188.445 27.9482C171.506 27.9482 155.088 46.2873 155.088 67.9433C155.088 84.1864 164.868 97.8042 178.665 97.8042C195.954 97.8042 212.197 79.6401 212.197 57.9883Z" fill="#AD6EFF"/>
</svg>
